<?xml version="1.0" standalone="no"?>
<!DOCTYPE svg PUBLIC "-//W3C//DTD SVG 20010904//EN"
 "http://www.w3.org/TR/2001/REC-SVG-20010904/DTD/svg10.dtd">
<svg version="1.0" xmlns="http://www.w3.org/2000/svg"
 width="911.000000pt" height="274.000000pt" viewBox="0 0 911.000000 274.000000"
 preserveAspectRatio="xMidYMid meet">

<g transform="translate(0.000000,274.000000) scale(0.100000,-0.100000)"
fill="#000000" stroke="none">
<path d="M605 2710 c-127 -16 -241 -37 -320 -58 l-30 -8 0 -304 0 -303 45 -14
c91 -28 171 -43 430 -83 146 -22 307 -52 359 -66 190 -52 299 -128 341 -241
31 -81 25 -224 -14 -338 -40 -114 -132 -304 -152 -312 -24 -9 -209 12 -334 37
-235 49 -418 142 -576 292 l-74 70 16 -53 c8 -30 33 -92 56 -139 32 -66 58
-101 117 -160 122 -121 240 -170 463 -190 400 -37 701 130 792 439 11 37 16
93 16 170 0 97 -4 127 -25 186 -48 136 -132 226 -283 300 -42 20 -78 39 -80
40 -2 1 15 29 37 60 60 86 81 150 81 250 0 215 -127 376 -339 427 -99 23 -331
23 -526 -2z m427 -243 c106 -52 153 -146 129 -258 -30 -141 -126 -179 -448
-179 l-133 0 0 209 0 209 38 13 c84 28 152 38 252 36 92 -2 112 -6 162 -30z"/>
<path d="M1880 1870 c0 -931 -2 -900 53 -958 35 -37 81 -51 180 -54 l92 -3 0
860 c0 935 2 907 -56 963 -38 37 -94 52 -193 52 l-76 0 0 -860z"/>
<path d="M5162 1863 l3 -868 25 -45 c35 -62 88 -87 208 -96 l92 -7 0 869 c0
822 -1 871 -19 909 -36 78 -91 104 -224 105 l-88 0 3 -867z"/>
<path d="M8619 2711 c-110 -25 -183 -65 -265 -146 -55 -54 -81 -90 -113 -156
-74 -154 -75 -167 -76 -824 l0 -580 25 -50 c34 -68 83 -91 208 -101 l92 -7 0
472 0 471 153 0 c164 0 216 8 256 37 47 36 63 68 68 137 l6 66 -242 0 -241 0
0 64 c0 128 41 248 109 319 69 74 96 82 267 82 126 0 155 3 177 18 39 25 63
81 58 133 -2 19 -78 55 -148 69 -90 19 -240 17 -334 -4z"/>
<path d="M4318 2225 c-274 -45 -464 -219 -524 -480 -27 -117 -25 -320 4 -439
52 -209 181 -361 364 -430 174 -66 508 -52 737 31 l43 16 -6 46 c-14 105 -62
127 -256 114 -224 -14 -318 -10 -371 14 -67 30 -123 90 -148 158 -23 60 -46
154 -39 160 2 2 46 -6 98 -17 131 -28 388 -31 474 -4 165 50 250 126 292 262
52 166 20 308 -95 423 -128 128 -345 183 -573 146z m213 -226 c59 -13 124 -65
146 -116 30 -73 5 -174 -56 -226 -71 -59 -211 -72 -393 -37 -57 11 -105 20
-107 20 -7 0 10 87 30 147 56 170 200 250 380 212z"/>
<path d="M6158 2225 c-275 -45 -463 -217 -524 -480 -24 -105 -25 -318 -1 -425
35 -156 139 -314 255 -389 111 -71 286 -108 452 -96 187 14 288 32 398 72 46
17 50 29 32 95 -14 47 -49 75 -108 84 -25 4 -125 1 -222 -6 -206 -14 -263 -7
-337 44 -61 41 -104 112 -128 209 -10 42 -17 78 -14 81 2 2 47 -5 99 -16 131
-28 388 -31 474 -4 165 50 250 126 292 262 52 167 20 308 -95 423 -129 128
-346 183 -573 146z m212 -226 c155 -33 212 -223 99 -331 -73 -70 -207 -86
-401 -48 -57 11 -105 20 -107 20 -7 0 10 87 30 147 56 170 200 250 379 212z"/>
<path d="M7341 2229 c-90 -10 -176 -28 -284 -60 l-68 -20 6 -35 c3 -18 7 -50
10 -69 12 -74 91 -93 247 -59 108 23 281 24 340 1 92 -36 153 -143 146 -259
l-3 -53 -50 2 c-27 2 -135 4 -240 5 -155 3 -201 0 -253 -14 -147 -41 -232
-104 -281 -207 -24 -51 -26 -67 -26 -181 0 -121 1 -128 32 -191 66 -134 194
-219 371 -246 165 -25 288 1 389 83 23 19 45 34 50 34 4 0 16 -14 25 -31 27
-46 91 -69 195 -72 l88 -2 0 495 c0 492 0 495 -24 570 -43 138 -110 222 -216
271 -91 43 -265 57 -454 38z m347 -760 l42 -11 0 -58 c0 -68 -28 -165 -60
-210 -83 -116 -328 -146 -431 -53 -114 103 -54 304 102 344 45 11 293 3 347
-12z"/>
<path d="M2383 1803 c5 -440 9 -476 63 -605 57 -136 163 -253 281 -309 97 -46
230 -67 323 -51 85 15 162 49 231 104 28 22 52 38 53 36 1 -1 12 -19 24 -39
12 -20 38 -44 58 -54 39 -18 133 -34 202 -35 l43 0 -3 613 -3 612 -25 44 c-37
65 -82 85 -202 89 l-98 4 0 -379 c0 -208 -5 -407 -10 -443 -14 -87 -70 -200
-121 -243 -79 -68 -217 -84 -316 -36 -87 42 -143 145 -163 299 -5 41 -10 203
-10 360 0 157 -5 301 -10 321 -22 80 -98 119 -231 119 l-91 0 5 -407z"/>
<path d="M35 2105 c47 -225 136 -449 236 -597 106 -156 263 -283 439 -356 126
-52 365 -102 487 -102 42 0 43 1 72 58 157 313 102 522 -167 627 -72 28 -296
87 -402 105 -119 21 -309 70 -389 101 -128 49 -214 112 -273 199 -15 24 -15
22 -3 -35z m289 -386 c35 -52 52 -70 64 -66 9 3 35 13 57 21 43 16 95 21 95 9
-1 -5 -23 -18 -50 -31 -77 -36 -78 -49 -16 -111 l52 -52 25 38 c45 68 187 114
307 97 l57 -7 -52 -12 c-79 -19 -139 -52 -183 -102 -61 -70 -57 -92 31 -138
l71 -37 16 24 c27 38 65 70 102 86 44 19 100 32 100 23 -1 -3 -24 -22 -52 -41
-46 -31 -98 -90 -98 -110 0 -10 101 -37 167 -46 31 -4 50 -11 46 -17 -4 -6
-42 -7 -107 -3 -110 8 -241 45 -324 93 -126 72 -241 192 -311 323 -25 48 -55
130 -47 130 2 0 24 -32 50 -71z"/>
<path d="M425 447 c-43 -20 -66 -50 -72 -95 -10 -74 33 -119 145 -153 39 -11
82 -48 82 -70 0 -5 -9 -18 -20 -29 -29 -29 -95 -27 -141 4 l-36 25 -27 -28
-28 -29 34 -25 c67 -50 144 -60 215 -28 48 23 73 55 80 108 7 57 -27 101 -102
131 -117 46 -140 66 -119 99 23 37 102 34 147 -5 16 -14 20 -13 42 8 33 31 32
40 -11 70 -44 29 -142 38 -189 17z"/>
<path d="M2207 450 c-48 -14 -94 -57 -121 -112 -47 -94 -31 -194 44 -268 72
-72 148 -87 236 -46 108 50 156 159 123 281 -14 52 -102 139 -148 148 -43 9
-99 7 -134 -3z m127 -84 c90 -37 109 -171 35 -245 -64 -65 -167 -43 -209 43
-38 80 -14 160 61 198 41 22 69 22 113 4z"/>
<path d="M3260 444 c-167 -72 -181 -318 -25 -410 78 -45 177 -42 239 7 l27 22
-26 27 -26 27 -37 -19 c-65 -34 -142 -11 -183 55 -16 25 -19 45 -16 90 3 51 8
62 40 95 34 34 42 37 91 36 32 0 63 -7 79 -17 25 -16 26 -16 51 16 l26 32 -23
17 c-49 39 -154 49 -217 22z"/>
<path d="M3634 435 c-109 -57 -154 -184 -103 -295 27 -60 54 -88 114 -116 63
-30 107 -30 170 0 87 40 135 115 135 208 -1 70 -27 125 -84 175 -69 61 -149
70 -232 28z m150 -69 c75 -31 107 -136 64 -210 -47 -80 -134 -95 -203 -35 -60
53 -70 135 -24 200 38 54 101 71 163 45z"/>
<path d="M6240 445 c-134 -61 -177 -233 -89 -355 35 -48 114 -90 170 -90 44 0
116 24 141 47 18 16 17 18 -7 43 l-26 27 -37 -18 c-47 -24 -89 -24 -130 1 -95
58 -96 210 -1 262 39 22 107 18 145 -7 21 -13 24 -12 48 20 l26 33 -36 23
c-47 29 -154 36 -204 14z"/>
<path d="M7534 447 c-112 -44 -168 -165 -133 -292 22 -78 128 -155 215 -155
37 0 123 41 151 71 56 61 79 172 49 243 -20 48 -75 107 -121 127 -45 21 -115
23 -161 6z m152 -92 c29 -19 63 -87 64 -126 0 -41 -42 -110 -80 -130 -44 -24
-71 -24 -120 1 -76 39 -103 150 -53 219 44 59 129 76 189 36z"/>
<path d="M8403 446 c-62 -28 -89 -106 -58 -166 14 -28 87 -70 145 -83 31 -8
70 -42 70 -62 0 -8 -9 -24 -20 -35 -31 -31 -100 -27 -140 7 l-32 26 -26 -27
c-32 -32 -25 -50 32 -79 120 -63 266 0 266 114 0 62 -55 111 -156 138 -77 21
-96 78 -34 100 34 11 83 0 112 -26 18 -16 20 -15 50 14 l31 31 -43 28 c-51 34
-145 43 -197 20z"/>
<path d="M680 415 l0 -35 60 0 60 0 0 -185 0 -185 40 0 40 0 2 183 3 182 63 3
62 3 0 34 0 35 -165 0 -165 0 0 -35z"/>
<path d="M1050 292 c0 -147 2 -162 23 -202 42 -80 137 -110 223 -71 82 37 104
98 104 294 l0 137 -39 0 -40 0 -3 -156 -3 -156 -33 -29 c-43 -39 -84 -39 -123
0 l-29 29 0 156 0 156 -40 0 -40 0 0 -158z"/>
<path d="M1473 308 c4 -79 7 -178 7 -222 l0 -79 103 5 c122 6 174 25 222 80
53 63 66 166 29 239 -20 40 -88 97 -131 108 -21 6 -83 11 -137 11 l-99 0 6
-142z m234 42 c41 -25 63 -68 63 -122 0 -87 -61 -138 -164 -138 l-56 0 0 140
0 140 63 0 c44 0 71 -6 94 -20z"/>
<path d="M1920 230 l0 -220 40 0 40 0 0 220 0 220 -40 0 -40 0 0 -220z"/>
<path d="M2852 423 c-9 -25 -115 -280 -155 -376 l-16 -38 41 3 41 3 32 80 c18
44 54 132 80 195 26 63 51 125 56 138 8 20 6 22 -30 22 -33 0 -41 -4 -49 -27z"/>
<path d="M4010 230 l0 -220 40 0 40 0 0 150 c0 83 3 150 8 150 4 0 36 -45 71
-100 35 -55 67 -100 71 -100 4 0 38 48 76 107 l69 108 3 -157 3 -158 39 0 40
0 0 220 0 220 -44 0 -44 0 -63 -105 c-35 -58 -68 -105 -74 -105 -5 0 -25 26
-44 58 -93 156 -89 152 -143 152 l-48 0 0 -220z"/>
<path d="M4550 230 l0 -220 40 0 39 0 3 153 3 152 71 -108 71 -108 68 106 c37
58 71 105 76 105 5 0 9 -67 9 -150 l0 -150 35 0 35 0 0 221 0 220 -41 -3 c-41
-3 -43 -5 -104 -103 -35 -54 -67 -101 -72 -102 -5 -2 -38 44 -73 102 l-65 105
-47 0 -48 0 0 -220z"/>
<path d="M5082 288 c3 -129 7 -170 21 -195 53 -99 192 -121 273 -42 45 43 54
87 54 253 l0 146 -40 0 -40 0 0 -145 c0 -154 -9 -193 -49 -215 -43 -22 -98 -5
-124 40 -14 23 -17 56 -17 174 l0 146 -41 0 -41 0 4 -162z"/>
<path d="M5510 230 l0 -220 40 0 40 0 0 145 c0 80 3 145 8 145 4 -1 50 -66
102 -145 l95 -145 43 0 42 0 0 220 0 220 -40 0 -39 0 -3 -147 -3 -148 -99 148
-99 147 -44 0 -43 0 0 -220z"/>
<path d="M5964 437 c-2 -7 -3 -105 -2 -217 l3 -205 38 -3 37 -3 0 220 0 221
-35 0 c-20 0 -38 -6 -41 -13z"/>
<path d="M6634 403 c-19 -52 -103 -268 -134 -345 l-19 -48 40 0 c39 0 41 2 61
50 l21 50 97 0 98 0 18 -50 c18 -49 18 -50 61 -50 24 0 43 2 43 3 0 5 -115
297 -147 375 l-26 62 -48 0 -47 0 -18 -47z m76 -55 c0 -7 13 -44 29 -83 16
-38 27 -73 24 -77 -2 -5 -34 -8 -70 -8 -48 0 -64 3 -61 13 48 132 62 167 69
167 5 0 9 -6 9 -12z"/>
<path d="M6870 415 l0 -34 63 -3 62 -3 3 -182 2 -183 40 0 40 0 2 183 3 182
63 3 62 3 0 34 0 35 -170 0 -170 0 0 -35z"/>
<path d="M7250 230 l0 -220 40 0 40 0 0 220 0 220 -40 0 -40 0 0 -220z"/>
<path d="M7890 230 l0 -220 40 0 39 0 3 151 3 151 101 -148 100 -149 42 -3 42
-3 0 220 0 221 -35 0 -35 0 0 -143 c0 -79 -3 -146 -6 -150 -4 -3 -51 61 -105
143 l-99 150 -45 0 -45 0 0 -220z"/>
</g>
</svg>
